<?xml version="1.0" encoding="iso-8859-1"?>
<!-- Generator: Adobe Illustrator 19.0.0, SVG Export Plug-In . SVG Version: 6.00 Build 0)  -->
<svg version="1.1" id="Capa_1" xmlns="http://www.w3.org/2000/svg" xmlns:xlink="http://www.w3.org/1999/xlink" x="0px" y="0px"
	 viewBox="0 0 512 512" style="enable-background:new 0 0 512 512;" xml:space="preserve">
<g>
	<g>
		<path  style="fill:#FFFFFF;" d="M461.602,352.785c-0.913-2.065-2.62-3.686-4.727-4.506l-209.408-81.067V42.667c0-4.719-3.823-8.533-8.533-8.533
			C107.187,34.133,0,141.321,0,273.067S107.187,512,238.933,512c97.894,0,187.443-61.355,222.822-152.678
			C462.575,357.214,462.515,354.859,461.602,352.785z M238.933,494.933c-122.334,0-221.867-99.524-221.867-221.867
			C17.067,153.591,112,55.868,230.4,51.362v221.705c0,3.524,2.167,6.682,5.453,7.962l206.754,80.034
			C407.441,442.667,328.397,494.933,238.933,494.933z"/>
	</g>
</g>
<g>
	<g>
		<path  style="fill:#FFFFFF;" d="M476.919,132.625C433.485,48.341,359.185,0,273.067,0c-4.71,0-8.533,3.814-8.533,8.533v230.4
			c0,2.987,1.562,5.751,4.113,7.296c1.357,0.819,2.884,1.237,4.42,1.237c1.348,0,2.705-0.324,3.951-0.964l196.267-102.4
			C477.449,141.926,479.07,136.798,476.919,132.625z M281.6,224.862V17.246c73.335,2.995,136.806,44.672,176.145,115.703
			L281.6,224.862z"/>
	</g>
</g>
<g>
	<g>
		<path  style="fill:#FFFFFF;" d="M489.31,168.286c-2.159-4.198-7.305-5.845-11.486-3.686L303.3,254.362c-2.987,1.536-4.787,4.676-4.617,8.038
			c0.171,3.362,2.304,6.289,5.436,7.509l183.023,70.852c1.015,0.393,2.057,0.572,3.081,0.572c3.422,0,6.656-2.065,7.962-5.453
			C507.349,312.226,512,287.352,512,261.948C512,229.018,504.363,197.504,489.31,168.286z M485.171,321.69l-157.176-60.843
			l149.88-77.082c11.324,24.593,17.058,50.859,17.058,78.182C494.933,282.377,491.657,302.43,485.171,321.69z"/>
	</g>
</g>
<g>
	<g>
		<path  style="fill:#FFFFFF;" d="M460.8,174.421c-4.71,0-8.533,3.814-8.533,8.533v138.453c0,4.719,3.823,8.533,8.533,8.533s8.533-3.814,8.533-8.533
			V182.955C469.333,178.236,465.51,174.421,460.8,174.421z"/>
	</g>
</g>
<g>
	<g>
		<path  style="fill:#FFFFFF;" d="M418.133,196.531c-4.71,0-8.533,3.814-8.533,8.533v99.823c0,4.719,3.823,8.533,8.533,8.533s8.533-3.814,8.533-8.533
			v-99.823C426.667,200.346,422.844,196.531,418.133,196.531z"/>
	</g>
</g>
<g>
	<g>
		<path  style="fill:#FFFFFF;" d="M375.467,219.469c-4.71,0-8.533,3.814-8.533,8.533v60.373c0,4.719,3.823,8.533,8.533,8.533s8.533-3.814,8.533-8.533
			v-60.373C384,223.283,380.177,219.469,375.467,219.469z"/>
	</g>
</g>
<g>
	<g>
		<path  style="fill:#FFFFFF;" d="M92.049,387.268c-26.684-33.997-40.806-73.489-40.849-114.21c0-4.71-3.823-8.525-8.533-8.525h-0.009
			c-4.71,0.009-8.525,3.831-8.525,8.542c0.051,44.587,15.437,87.706,44.493,124.723c1.681,2.15,4.181,3.268,6.716,3.268
			c1.843,0,3.695-0.589,5.265-1.826C94.31,396.331,94.959,390.98,92.049,387.268z"/>
	</g>
</g>
<g>
	<g>
		<path  style="fill:#FFFFFF;" d="M238.942,460.8c-36.105-0.043-74.829-11.964-106.24-32.717c-3.925-2.594-9.225-1.519-11.819,2.406
			c-2.594,3.934-1.519,9.233,2.415,11.827c34.125,22.554,76.262,35.507,115.635,35.55c4.71,0,8.525-3.814,8.533-8.525
			S243.652,460.809,238.942,460.8z"/>
	</g>
</g>
<g>
	<g>
		<path  style="fill:#FFFFFF;" d="M357.521,18.432c-2.679-3.883-7.996-4.855-11.87-2.167l-77.44,53.513c-3.874,2.679-4.847,7.996-2.167,11.87
			c1.655,2.406,4.326,3.686,7.031,3.686c1.673,0,3.362-0.495,4.838-1.519l77.44-53.513
			C359.228,27.622,360.201,22.306,357.521,18.432z"/>
	</g>
</g>
<g>
	<g>
		<path  style="fill:#FFFFFF;" d="M314.3,114.731c-2.611-3.925-7.919-4.966-11.836-2.364l-34.133,22.758c-3.917,2.62-4.975,7.919-2.364,11.836
			c1.647,2.466,4.352,3.797,7.108,3.797c1.63,0,3.268-0.469,4.727-1.434l34.133-22.758
			C315.853,123.947,316.911,118.647,314.3,114.731z"/>
	</g>
</g>
<g>
	<g>
		<path  style="fill:#FFFFFF;" d="M378.3,72.064c-2.62-3.917-7.919-4.966-11.836-2.364l-21.333,14.225c-3.917,2.62-4.975,7.919-2.364,11.836
			c1.647,2.466,4.352,3.797,7.108,3.797c1.63,0,3.268-0.469,4.727-1.434L375.936,83.9C379.853,81.28,380.919,75.981,378.3,72.064z"
			/>
	</g>
</g>
<g>
	<g>
		<path  style="fill:#FFFFFF;" d="M445.338,84.258c-2.62-3.925-7.91-4.975-11.836-2.364l-122.505,81.673c-3.917,2.62-4.975,7.91-2.364,11.836
			c1.647,2.466,4.352,3.797,7.108,3.797c1.621,0,3.268-0.469,4.727-1.434l122.505-81.673
			C446.891,93.474,447.957,88.183,445.338,84.258z"/>
	</g>
</g>
<g>
</g>
<g>
</g>
<g>
</g>
<g>
</g>
<g>
</g>
<g>
</g>
<g>
</g>
<g>
</g>
<g>
</g>
<g>
</g>
<g>
</g>
<g>
</g>
<g>
</g>
<g>
</g>
<g>
</g>
</svg>
